<svg xmlns="http://www.w3.org/2000/svg" xmlns:xlink="http://www.w3.org/1999/xlink" version="1.1" width="256" height="256" viewBox="0 0 256 256" xml:space="preserve">

<defs>
</defs>
<g style="stroke: none; stroke-width: 0; stroke-dasharray: none; stroke-linecap: butt; stroke-linejoin: miter; stroke-miterlimit: 10; fill: none; fill-rule: nonzero; opacity: 1;" transform="translate(1.4065934065934016 1.4065934065934016) scale(2.81 2.81)" >
	<style>
		.fill {
			fill: #000;
		}
		@media (prefers-color-scheme: dark) {
			.fill {
				fill: #fff;
			}
		}

	</style>
	<path class="fill" d="M 0.037 60.862 c 0.055 -0.064 0.151 -0.071 0.215 -0.016 c 1.606 1.378 3.248 2.659 4.965 3.781 c 1.719 1.12 3.513 2.074 5.369 2.854 c 1.86 0.773 3.776 1.386 5.74 1.839 c 1.078 0.249 2.167 0.462 3.263 0.652 c -1.16 -2.841 -2.042 -5.779 -2.731 -8.73 l -0.014 -0.058 c -0.052 -0.224 -0.035 -0.467 0.067 -0.694 c 1.441 -3.222 3.039 -6.429 5.107 -9.366 c -3.352 0.479 -6.662 1.322 -9.832 2.576 c -3.82 1.518 -7.432 3.61 -10.668 6.209 c -0.061 0.049 -0.151 0.044 -0.205 -0.014 c -0.057 -0.061 -0.054 -0.157 0.007 -0.214 c 3.059 -2.856 6.607 -5.205 10.428 -6.994 c 3.819 -1.797 7.927 -3.02 12.139 -3.601 c 0.218 -0.029 0.449 0.022 0.64 0.162 c 0.393 0.287 0.479 0.839 0.192 1.232 l -0.027 0.036 c -2.306 3.155 -3.969 6.782 -5.432 10.479 c 0.508 1.728 1.09 3.428 1.765 5.083 c 0.728 1.764 1.571 3.47 2.479 5.133 c 0.141 0.258 0.209 0.558 0.18 0.872 c -0.078 0.838 -0.821 1.453 -1.659 1.375 l -0.054 -0.005 c -2.157 -0.202 -4.32 -0.56 -6.424 -1.175 c -2.102 -0.613 -4.162 -1.426 -6.083 -2.49 c -3.861 -2.106 -7.128 -5.17 -9.441 -8.743 C -0.011 60.989 -0.008 60.914 0.037 60.862 z" style="stroke: none; stroke-width: 1; stroke-dasharray: none; stroke-linecap: butt; stroke-linejoin: miter; stroke-miterlimit: 10; fill-rule: nonzero; opacity: 1;" transform=" matrix(1 0 0 1 0 0) " stroke-linecap="round" />
	<path class="fill" d="M 22.263 60.925 c 0.011 -1.112 0.921 -2.004 2.033 -1.993 l 0.011 0 c 6.604 0.065 13.375 -1.85 18.666 -5.773 c -2.552 -2.664 -4.545 -5.906 -5.661 -9.465 c -0.24 -0.906 -0.579 -1.792 -0.698 -2.727 c -0.163 -0.926 -0.353 -1.85 -0.375 -2.793 c -0.211 -1.823 -0.104 -3.913 0.627 -5.826 c 0.753 -1.904 2.164 -3.646 4.033 -4.629 c 1.845 -1.006 4.013 -1.345 6.08 -0.991 c 2.065 0.36 4.031 1.463 5.402 3.105 c 1.372 1.65 2.071 3.735 2.241 5.744 c 0.098 1.031 0.004 1.954 -0.034 2.91 c -0.037 0.475 -0.017 0.955 -0.104 1.426 l -0.243 1.416 c -0.093 0.469 -0.139 0.95 -0.274 1.411 l -0.417 1.38 c -0.154 0.455 -0.252 0.931 -0.454 1.369 l -0.585 1.321 c -1.297 2.829 -3.189 5.352 -5.43 7.475 c 4.41 3.608 10.076 5.71 15.84 5.877 c 6.944 0.258 14.075 -2.197 19.149 -7.082 c 2.541 -2.413 4.573 -5.376 5.842 -8.658 c 1.269 -3.276 1.784 -6.869 1.399 -10.389 c -0.366 -3.516 -1.558 -6.96 -3.483 -9.955 c -1.917 -3.001 -4.501 -5.57 -7.487 -7.54 c 3.031 1.899 5.689 4.417 7.697 7.403 c 2.015 2.98 3.314 6.449 3.772 10.035 c 0.477 3.587 0.04 7.293 -1.192 10.709 c -1.231 3.421 -3.264 6.546 -5.849 9.118 c -5.158 5.203 -12.556 7.969 -19.883 7.868 c -6.188 -0.035 -12.39 -2.186 -17.271 -6.093 c -0.066 0.054 -0.129 0.112 -0.196 0.166 c -5.992 4.767 -13.562 7.098 -21.114 7.215 c -0.014 0 -0.037 0 -0.051 0 C 23.144 62.947 22.252 62.037 22.263 60.925 z M 49.557 45.404 l 0.531 -1.119 c 0.186 -0.37 0.271 -0.779 0.414 -1.167 l 0.391 -1.178 c 0.129 -0.394 0.171 -0.811 0.262 -1.215 l 0.243 -1.223 c 0.09 -0.407 0.074 -0.83 0.117 -1.245 c 0.052 -0.829 0.157 -1.691 0.097 -2.447 c -0.098 -1.546 -0.576 -3.007 -1.472 -4.146 c -0.902 -1.127 -2.21 -1.919 -3.665 -2.214 c -1.454 -0.285 -3.016 -0.077 -4.33 0.599 c -1.334 0.66 -2.339 1.842 -2.942 3.234 c -0.572 1.435 -0.736 3.005 -0.577 4.735 c -0.005 0.852 0.152 1.686 0.278 2.525 c 0.082 0.849 0.379 1.652 0.572 2.48 c 0.94 3.271 2.703 6.302 5.028 8.826 c 0.014 0.015 0.028 0.029 0.042 0.044 C 46.618 50.059 48.355 47.871 49.557 45.404 z" style="stroke: none; stroke-width: 1; stroke-dasharray: none; stroke-linecap: butt; stroke-linejoin: miter; stroke-miterlimit: 10; fill-rule: nonzero; opacity: 1;" transform=" matrix(1 0 0 1 0 0) " stroke-linecap="round" />
</g>
</svg>