<?xml version="1.0" encoding="UTF-8"?>
<svg id="Layer_1" data-name="Layer 1" xmlns="http://www.w3.org/2000/svg" viewBox="0 0 360 360">
  <defs>
    <style>
      .cls-1 {
        fill: #6fad45;
        stroke-width: 0px;
      }
    </style>
  </defs>
  <g>
    <path class="cls-1" d="m298.89,268.96h-23.15c-1.65,0-2.99-1.34-2.99-2.99s1.34-2.99,2.99-2.99h20.16v-42.99c0-1.65,1.34-2.99,2.99-2.99s2.99,1.34,2.99,2.99v45.98c0,1.65-1.34,2.99-2.99,2.99Z"/>
    <path class="cls-1" d="m263.35,268.96h-5.69c-1.65,0-2.99-1.34-2.99-2.99s1.34-2.99,2.99-2.99h5.69c1.65,0,2.99,1.33,2.99,2.99s-1.34,2.99-2.99,2.99Z"/>
  </g>
  <path class="cls-1" d="m47.28,190.99c-1.65,0-2.99-1.34-2.99-2.99v-34.97c0-1.65,1.34-2.99,2.99-2.99s2.99,1.34,2.99,2.99v34.97c0,1.65-1.34,2.99-2.99,2.99Z"/>
  <path class="cls-1" d="m320.04,296.6H55.32c-1.65,0-2.99-1.34-2.99-2.99s1.34-2.99,2.99-2.99h264.73c1.93,0,3.51-1.58,3.51-3.51V109.15c0-1.65,1.34-2.99,2.99-2.99s2.99,1.34,2.99,2.99v177.97c0,5.23-4.26,9.48-9.48,9.48Z"/>
  <path class="cls-1" d="m310.33,282.78H35.84c-2.96,0-5.37-2.41-5.37-5.37V122.97c0-1.65,1.34-2.99,2.99-2.99h210.23c1.65,0,2.99,1.34,2.99,2.99s-1.34,2.99-2.99,2.99H36.45v150.84h273.28V125.96h-46.2c-1.65,0-2.99-1.34-2.99-2.99s1.34-2.99,2.99-2.99h49.19c1.65,0,2.99,1.34,2.99,2.99v154.44c0,2.96-2.41,5.37-5.37,5.37Z"/>
  <g>
    <path class="cls-1" d="m173.09,257.02c-.79,0-1.55-.32-2.11-.88l-48.83-48.83c-6.81-6.81-10.56-15.86-10.56-25.5s3.75-18.68,10.56-25.5c6.81-6.81,15.87-10.56,25.5-10.56s18.64,3.73,25.44,10.51c6.8-6.78,15.84-10.51,25.44-10.51s18.69,3.75,25.5,10.56c14.06,14.06,14.06,36.93,0,51l-48.83,48.83c-.56.56-1.32.88-2.11.88Zm-25.44-105.29c-8.04,0-15.59,3.13-21.27,8.81-5.68,5.68-8.81,13.24-8.81,21.27s3.13,15.6,8.81,21.28l46.72,46.72,46.72-46.72c11.73-11.73,11.73-30.82,0-42.55-5.68-5.68-13.24-8.81-21.27-8.81s-15.59,3.13-21.27,8.81l-2.06,2.06c-1.17,1.17-3.06,1.17-4.22,0l-2.06-2.06c-5.68-5.68-13.24-8.81-21.28-8.81Z"/>
    <path class="cls-1" d="m134.51,171.67c-.77,0-1.53-.29-2.11-.87-1.17-1.17-1.17-3.06,0-4.23,4.07-4.07,9.48-6.32,15.24-6.32,1.65,0,2.99,1.34,2.99,2.99s-1.34,2.99-2.99,2.99c-4.16,0-8.07,1.62-11.02,4.57-.58.58-1.35.87-2.12.87Z"/>
  </g>
  <g>
    <path class="cls-1" d="m312.71,125.96h-49.19c-1.65,0-2.99-1.34-2.99-2.99s1.34-2.99,2.99-2.99h46.2v-29.27c0-4.47-3.64-8.12-8.12-8.12h-23.27c-1.65,0-2.99-1.33-2.99-2.99s1.34-2.99,2.99-2.99h23.27c7.77,0,14.09,6.32,14.09,14.09v32.26c0,1.65-1.34,2.99-2.99,2.99Z"/>
    <path class="cls-1" d="m266.14,82.59h-40.43c-1.65,0-2.99-1.33-2.99-2.99s1.34-2.99,2.99-2.99h40.43c1.65,0,2.99,1.34,2.99,2.99s-1.34,2.99-2.99,2.99Z"/>
    <path class="cls-1" d="m213.51,82.59h-40.43c-1.65,0-2.99-1.33-2.99-2.99s1.34-2.99,2.99-2.99h40.43c1.65,0,2.99,1.34,2.99,2.99s-1.34,2.99-2.99,2.99Z"/>
    <path class="cls-1" d="m243.69,125.96H33.46c-1.65,0-2.99-1.34-2.99-2.99v-32.26c0-7.77,6.32-14.09,14.09-14.09h11.08c1.65,0,2.99,1.34,2.99,2.99s-1.34,2.99-2.99,2.99h-11.08c-4.47,0-8.12,3.65-8.12,8.12v29.27h207.25c1.65,0,2.99,1.34,2.99,2.99s-1.34,2.99-2.99,2.99Z"/>
    <path class="cls-1" d="m160.89,82.59h-40.43c-1.65,0-2.99-1.33-2.99-2.99s1.34-2.99,2.99-2.99h40.43c1.65,0,2.99,1.34,2.99,2.99s-1.34,2.99-2.99,2.99Z"/>
    <path class="cls-1" d="m108.27,82.59h-40.43c-1.65,0-2.99-1.33-2.99-2.99s1.34-2.99,2.99-2.99h40.43c1.65,0,2.99,1.34,2.99,2.99s-1.34,2.99-2.99,2.99Z"/>
    <g>
      <path class="cls-1" d="m67.84,95.81c-1.65,0-2.99-1.33-2.99-2.99v-26.45c0-1.65,1.34-2.99,2.99-2.99s2.99,1.34,2.99,2.99v26.45c0,1.65-1.34,2.99-2.99,2.99Z"/>
      <path class="cls-1" d="m120.46,95.81c-1.65,0-2.99-1.33-2.99-2.99v-26.45c0-1.65,1.34-2.99,2.99-2.99s2.99,1.34,2.99,2.99v26.45c0,1.65-1.34,2.99-2.99,2.99Z"/>
      <path class="cls-1" d="m173.09,95.81c-1.65,0-2.99-1.33-2.99-2.99v-26.45c0-1.65,1.34-2.99,2.99-2.99s2.99,1.34,2.99,2.99v26.45c0,1.65-1.34,2.99-2.99,2.99Z"/>
      <path class="cls-1" d="m225.71,95.81c-1.65,0-2.99-1.33-2.99-2.99v-26.45c0-1.65,1.34-2.99,2.99-2.99s2.99,1.34,2.99,2.99v26.45c0,1.65-1.34,2.99-2.99,2.99Z"/>
      <path class="cls-1" d="m278.33,95.81c-1.65,0-2.99-1.33-2.99-2.99v-26.45c0-1.65,1.34-2.99,2.99-2.99s2.99,1.34,2.99,2.99v26.45c0,1.65-1.34,2.99-2.99,2.99Z"/>
    </g>
  </g>
</svg>