<?xml version="1.0" encoding="UTF-8"?>
<svg id="Layer_1" data-name="Layer 1" xmlns="http://www.w3.org/2000/svg" viewBox="0 0 360 360">
  <defs>
    <style>
      .cls-1 {
        stroke-width: 5px;
      }

      .cls-1, .cls-2, .cls-3, .cls-4 {
        fill: none;
        stroke: #6fad45;
        stroke-miterlimit: 10;
      }

      .cls-2 {
        stroke-width: 8px;
      }

      .cls-5 {
        fill: #6fad45;
        stroke-width: 0px;
      }

      .cls-3 {
        stroke-width: 13px;
      }

      .cls-4 {
        stroke-width: 4px;
      }
    </style>
  </defs>
  <rect class="cls-1" x="37.33" y="88.18" width="297.32" height="194.6" rx="17.54" ry="17.54"/>
  <circle class="cls-4" cx="104.93" cy="147.31" r="41.78"/>
  <line class="cls-3" x1="37.33" y1="151.78" x2="63.15" y2="151.78"/>
  <line class="cls-3" x1="146.7" y1="151.78" x2="334.65" y2="151.78"/>
  <line class="cls-2" x1="205.32" y1="178.06" x2="305.81" y2="178.06"/>
  <line class="cls-2" x1="205.32" y1="197.37" x2="305.81" y2="197.37"/>
  <line class="cls-4" x1="69.48" y1="241.55" x2="69.48" y2="257.08"/>
  <line class="cls-4" x1="94.6" y1="241.55" x2="94.6" y2="257.08"/>
  <line class="cls-4" x1="119.72" y1="241.55" x2="119.72" y2="249.32"/>
  <line class="cls-4" x1="145.77" y1="245.43" x2="145.77" y2="261.26"/>
  <line class="cls-4" x1="173.69" y1="241.55" x2="173.69" y2="261.26"/>
  <line class="cls-4" x1="205.32" y1="245.43" x2="205.32" y2="253.35"/>
  <line class="cls-4" x1="226.72" y1="241.55" x2="226.72" y2="261.26"/>
  <line class="cls-4" x1="255.56" y1="241.55" x2="255.56" y2="261.26"/>
  <line class="cls-4" x1="276.96" y1="245.43" x2="276.96" y2="257.08"/>
  <line class="cls-4" x1="301.15" y1="245.43" x2="301.15" y2="261.26"/>
  <path class="cls-5" d="m81.09,158.54h12.6v12.6c0,2.33,1.89,4.23,4.23,4.23h14.96c2.33,0,4.23-1.89,4.23-4.23v-12.6h12.6c2.33,0,4.23-1.89,4.23-4.23v-14.96c0-2.33-1.89-4.23-4.23-4.23h-12.6v-12.6c0-2.33-1.89-4.23-4.23-4.23h-14.96c-2.33,0-4.23,1.89-4.23,4.23v12.6h-12.6c-2.33,0-4.23,1.89-4.23,4.23v14.96c0,2.33,1.89,4.23,4.23,4.23Zm4.23-14.96h12.6c2.33,0,4.23-1.89,4.23-4.23v-12.6h6.5v12.6c0,2.33,1.89,4.23,4.23,4.23h12.6v6.5h-12.6c-2.33,0-4.23,1.89-4.23,4.23v12.6h-6.5v-12.6c0-2.33-1.89-4.23-4.23-4.23h-12.6v-6.5Z"/>
</svg>