<?xml version="1.0" encoding="UTF-8"?>
<svg id="Layer_1" data-name="Layer 1" xmlns="http://www.w3.org/2000/svg" viewBox="0 0 360 360">
  <defs>
    <style>
      .cls-1 {
        fill: #6fad45;
        stroke: #6fad45;
        stroke-miterlimit: 10;
        stroke-width: 10px;
      }

    </style>
  </defs>
  <path class="cls-1" d="m277.9,96.59c.08.08.13.13.17.17-.04-.04-.09-.09-.17-.17Z"/>
  <path class="cls-1" d="m264.51,83.12c-.21-.22-.2-.2,0,0h0Z"/>
  <path class="cls-1" d="m264.59,83.19s-.05-.05-.08-.08c.02.02.05.05.08.08Z"/>
  <path class="cls-1" d="m278.06,96.75c.06.06.06.06,0,0h0Z"/>
  <path class="cls-1" d="m308.4,180.76c.37-33.86-13.45-67.01-37.26-90.97,2.97,2.98,5.95,5.99,6.76,6.8-.62-.63-2.63-2.65-6.76-6.81-3.97-3.99-5.92-5.96-6.55-6.59.82.82,3.66,3.69,6.54,6.58-23.64-23.78-55-37.17-88.46-37.81v-.02s-1.99-.02-1.99-.02c-.27,0-.54,0-.81,0h-.14s0,0,0,0c-68.74.23-126.4,56.91-127.76,125.64h-.02s-.02,2.01-.02,2.01c0,.28,0,.56,0,.85v.08s0,0,0,0c.18,68.42,56.31,126,124.72,127.83v.02s2.05.03,2.05.03c.15,0,.3,0,.46,0h.43s0,0,0,0c68.75.76,126.9-56.28,128.75-124.7h.02s.03-2.15.03-2.15c0-.03,0-.06,0-.09v-.7s0,0,0,0ZM179.4,54.85v.04s-.2,1.7-.2,1.7c-.98,8.44-1.95,16.88-2.84,25.33-.64,6.11-5.25,23.02,5.2,23.02,8.62,0,15.38-12.17,24.45-6.22,7.64,5.02,7.31,18.78,5.5,26.48-1.98,8.42-9.38,13.93-17.61,8.72-3.59-2.27-7.86-5.66-12.32-5.65-4.22.01-7.06,3.71-6.65,7.72,1.26,12.37,2.13,24.78,3.11,37.17v.08c.26,1.86.35,3.76.49,5.63-7.08.62-14.16,1.3-21.25,1.94-2.93.26-13.99,1.53-21.48,1.53-4.52,0-5.33-2.57-4.87-4.34,2.32-9.01,13.19-17.7,4.13-26.98-7.12-7.29-21.5-7.2-30.48-4.23-10.44,3.46-13.2,13.58-7.36,22.53,1.89,2.9,7.22,10,2.6,12.81-1.84,1.12-4.87.3-6.93.1-12.68-1.29-25.34-2.81-37.99-4.33,1.2-67.73,56.71-122.66,124.52-123.07Zm-2.34,250.59c-67.28-1.65-121.83-57.2-122.2-124.58,13.12,1.57,26.24,3.16,39.38,4.46,2.66.26,5.33.71,7.65-1.05,4.8-3.64,1.9-9.81-.56-13.89-2.52-4.18-5.38-7.82-4.19-13.05,1.1-4.84,5.92-7.26,10.35-8.32,7.75-1.86,23.35-2.31,27.29,6.73,4.19,9.61-12.29,19.26-5.31,27.53,2.74,3.24,6.9,2.26,10.59,1.96,5.56-.46,11.11-.94,16.66-1.43,7.33-.65,14.66-1.36,21.99-2,.76,10.74,1.45,21.49,2.2,32.24.33,4.65.65,9.31,1.06,13.95.59,6.77-8.01,2.99-10.72,1.37-4.43-2.65-8.12-5.39-13.59-4.85-4.82.47-8.47,3.64-10.51,7.91-4.19,8.73-4.24,22.69,1.31,30.88,2.78,4.1,7.29,6.1,12.21,5.61,5.53-.55,9.27-4.68,14.23-6.71,8-3.28,7.02,4.69,6.47,9.8-1.22,11.17-2.76,22.31-4.32,33.44Zm3.11.05c-.06,0-.11,0-.17,0,1.52-10.9,3.03-21.8,4.23-32.74.58-5.36,2.14-14.38-6.02-14.38-8.83,0-18.12,14.34-26.53,4.34-6.07-7.21-5.86-21.94-1.45-29.87,2.52-4.52,7.18-6.39,12.18-5.04,4.63,1.26,8.2,5.14,12.82,6.66,13.29,4.37,8.96-15.53,8.49-22.31-.71-10.2-1.37-20.4-2.09-30.59,14.4-1.24,28.81-2.44,43.22-3.58h.07c9.22-.69-.46,13.23-1.9,15.82-3.66,6.58-1.43,14.7,5.06,18.4,11.07,6.32,39.5,5.32,37.68-12.89-.53-5.3-10.71-15.26-6.7-19.98,2.58-3.04,11.32-.51,14.92-.09,10.5,1.22,20.98,2.63,31.46,4.07-1.67,67.49-57.6,122.19-125.27,122.19Zm96.94-128.83c-3.64-.44-7.29-.87-10.94-1.23-1.83-.18-3.85-.61-5.67-.21-5.55,1.23-5.88,6.93-4.03,11.27,2.72,6.39,10.39,13.67,4.23,20.71-5.71,6.53-18.09,6.31-25.73,4.52-8.45-1.99-13.93-9.39-8.7-17.63,2.16-3.4,4.45-6.72,5.44-10.68,1.09-4.35-2.51-8.64-6.97-8.34h-.08c-14.41,1.14-28.82,2.34-43.23,3.58h0s0,0,0,0c-.14-1.91-.24-3.84-.49-5.73-.88-11.33-1.76-22.66-2.8-33.97-.24-2.62-1.16-6.17,2-7.44,3.55-1.44,8.4,2.46,11.21,4.27,8.22,5.36,18.02,3.37,21.83-6.13,3.36-8.39,3.37-20.52-1.18-28.5-2.12-3.71-5.58-6.29-9.89-6.72-5.47-.54-9.16,2.2-13.59,4.85-2.77,1.66-9.36,5.17-10.65-.14-.96-3.96.66-9.76,1.08-13.78.97-9.48,2.07-18.94,3.16-28.4l.17-1.47.07-.58c67.15,1.14,123.53,58.12,123.15,125.48-9.45-1.3-18.91-2.55-28.38-3.7Z"/>
</svg>